<?xml version="1.0" encoding="us-ascii" standalone="no"?><svg xmlns="http://www.w3.org/2000/svg" xmlns:xlink="http://www.w3.org/1999/xlink" contentStyleType="text/css" height="1011px" preserveAspectRatio="none" style="width:651px;height:1011px;background:#FFFFFF;" version="1.1" viewBox="0 0 651 1011" width="651px" zoomAndPan="magnify"><defs/><g><line style="stroke:#181818;stroke-width:0.5;stroke-dasharray:5.0,5.0;" x1="45" x2="45" y1="36.2969" y2="976.0156"/><line style="stroke:#181818;stroke-width:0.5;stroke-dasharray:5.0,5.0;" x1="198.5" x2="198.5" y1="36.2969" y2="976.0156"/><line style="stroke:#181818;stroke-width:0.5;stroke-dasharray:5.0,5.0;" x1="314" x2="314" y1="36.2969" y2="976.0156"/><line style="stroke:#181818;stroke-width:0.5;stroke-dasharray:5.0,5.0;" x1="429" x2="429" y1="36.2969" y2="976.0156"/><line style="stroke:#181818;stroke-width:0.5;stroke-dasharray:5.0,5.0;" x1="567.5" x2="567.5" y1="36.2969" y2="976.0156"/><rect fill="#E2E2F0" height="30.2969" rx="2.5" ry="2.5" style="stroke:#181818;stroke-width:0.5;" width="81" x="5" y="5"/><text fill="#000000" font-family="sans-serif" font-size="14" lengthAdjust="spacing" textLength="67" x="12" y="24.9951">Sample_3</text><rect fill="#E2E2F0" height="30.2969" rx="2.5" ry="2.5" style="stroke:#181818;stroke-width:0.5;" width="81" x="5" y="975.0156"/><text fill="#000000" font-family="sans-serif" font-size="14" lengthAdjust="spacing" textLength="67" x="12" y="995.0107">Sample_3</text><rect fill="#E2E2F0" height="30.2969" rx="2.5" ry="2.5" style="stroke:#181818;stroke-width:0.5;" width="48" x="174.5" y="5"/><text fill="#000000" font-family="sans-serif" font-size="14" lengthAdjust="spacing" textLength="34" x="181.5" y="24.9951">Take</text><rect fill="#E2E2F0" height="30.2969" rx="2.5" ry="2.5" style="stroke:#181818;stroke-width:0.5;" width="48" x="174.5" y="975.0156"/><text fill="#000000" font-family="sans-serif" font-size="14" lengthAdjust="spacing" textLength="34" x="181.5" y="995.0107">Take</text><rect fill="#E2E2F0" height="30.2969" rx="2.5" ry="2.5" style="stroke:#181818;stroke-width:0.5;" width="57" x="286" y="5"/><text fill="#000000" font-family="sans-serif" font-size="14" lengthAdjust="spacing" textLength="43" x="293" y="24.9951">Select</text><rect fill="#E2E2F0" height="30.2969" rx="2.5" ry="2.5" style="stroke:#181818;stroke-width:0.5;" width="57" x="286" y="975.0156"/><text fill="#000000" font-family="sans-serif" font-size="14" lengthAdjust="spacing" textLength="43" x="293" y="995.0107">Select</text><rect fill="#E2E2F0" height="30.2969" rx="2.5" ry="2.5" style="stroke:#181818;stroke-width:0.5;" width="59" x="400" y="5"/><text fill="#000000" font-family="sans-serif" font-size="14" lengthAdjust="spacing" textLength="45" x="407" y="24.9951">Where</text><rect fill="#E2E2F0" height="30.2969" rx="2.5" ry="2.5" style="stroke:#181818;stroke-width:0.5;" width="59" x="400" y="975.0156"/><text fill="#000000" font-family="sans-serif" font-size="14" lengthAdjust="spacing" textLength="45" x="407" y="995.0107">Where</text><rect fill="#E2E2F0" height="30.2969" rx="2.5" ry="2.5" style="stroke:#181818;stroke-width:0.5;" width="156" x="489.5" y="5"/><text fill="#000000" font-family="sans-serif" font-size="14" lengthAdjust="spacing" textLength="142" x="496.5" y="24.9951">CountUpEnumerator</text><rect fill="#E2E2F0" height="30.2969" rx="2.5" ry="2.5" style="stroke:#181818;stroke-width:0.5;" width="156" x="489.5" y="975.0156"/><text fill="#000000" font-family="sans-serif" font-size="14" lengthAdjust="spacing" textLength="142" x="496.5" y="995.0107">CountUpEnumerator</text><polygon fill="#181818" points="186.5,63.4297,196.5,67.4297,186.5,71.4297,190.5,67.4297" style="stroke:#181818;stroke-width:1.0;"/><line style="stroke:#181818;stroke-width:1.0;" x1="45.5" x2="192.5" y1="67.4297" y2="67.4297"/><text fill="#000000" font-family="sans-serif" font-size="13" lengthAdjust="spacing" textLength="74" x="52.5" y="62.3638">MoveNext()</text><polygon fill="#181818" points="302.5,92.5625,312.5,96.5625,302.5,100.5625,306.5,96.5625" style="stroke:#181818;stroke-width:1.0;"/><line style="stroke:#181818;stroke-width:1.0;" x1="198.5" x2="308.5" y1="96.5625" y2="96.5625"/><text fill="#000000" font-family="sans-serif" font-size="13" lengthAdjust="spacing" textLength="74" x="205.5" y="91.4966">MoveNext()</text><polygon fill="#181818" points="417.5,121.6953,427.5,125.6953,417.5,129.6953,421.5,125.6953" style="stroke:#181818;stroke-width:1.0;"/><line style="stroke:#181818;stroke-width:1.0;" x1="314.5" x2="423.5" y1="125.6953" y2="125.6953"/><text fill="#000000" font-family="sans-serif" font-size="13" lengthAdjust="spacing" textLength="74" x="321.5" y="120.6294">MoveNext()</text><polygon fill="#181818" points="555.5,150.8281,565.5,154.8281,555.5,158.8281,559.5,154.8281" style="stroke:#181818;stroke-width:1.0;"/><line style="stroke:#181818;stroke-width:1.0;" x1="429.5" x2="561.5" y1="154.8281" y2="154.8281"/><text fill="#000000" font-family="sans-serif" font-size="13" lengthAdjust="spacing" textLength="74" x="436.5" y="149.7622">MoveNext()</text><polygon fill="#181818" points="440.5,179.9609,430.5,183.9609,440.5,187.9609,436.5,183.9609" style="stroke:#181818;stroke-width:1.0;"/><line style="stroke:#181818;stroke-width:1.0;" x1="434.5" x2="566.5" y1="183.9609" y2="183.9609"/><text fill="#000000" font-family="sans-serif" font-size="13" lengthAdjust="spacing" textLength="67" x="446.5" y="178.895">Current=1</text><line style="stroke:#181818;stroke-width:1.0;" x1="429.5" x2="471.5" y1="213.0938" y2="213.0938"/><line style="stroke:#181818;stroke-width:1.0;" x1="471.5" x2="471.5" y1="213.0938" y2="226.0938"/><line style="stroke:#181818;stroke-width:1.0;" x1="430.5" x2="471.5" y1="226.0938" y2="226.0938"/><polygon fill="#181818" points="440.5,222.0938,430.5,226.0938,440.5,230.0938,436.5,226.0938" style="stroke:#181818;stroke-width:1.0;"/><text fill="#000000" font-family="sans-serif" font-size="13" lengthAdjust="spacing" textLength="124" x="436.5" y="208.0278">predicate(1)-&gt;false</text><polygon fill="#181818" points="555.5,251.2266,565.5,255.2266,555.5,259.2266,559.5,255.2266" style="stroke:#181818;stroke-width:1.0;"/><line style="stroke:#181818;stroke-width:1.0;" x1="429.5" x2="561.5" y1="255.2266" y2="255.2266"/><text fill="#000000" font-family="sans-serif" font-size="13" lengthAdjust="spacing" textLength="74" x="436.5" y="250.1606">MoveNext()</text><polygon fill="#181818" points="440.5,280.3594,430.5,284.3594,440.5,288.3594,436.5,284.3594" style="stroke:#181818;stroke-width:1.0;"/><line style="stroke:#181818;stroke-width:1.0;" x1="434.5" x2="566.5" y1="284.3594" y2="284.3594"/><text fill="#000000" font-family="sans-serif" font-size="13" lengthAdjust="spacing" textLength="67" x="446.5" y="279.2935">Current=2</text><line style="stroke:#181818;stroke-width:1.0;" x1="429.5" x2="471.5" y1="313.4922" y2="313.4922"/><line style="stroke:#181818;stroke-width:1.0;" x1="471.5" x2="471.5" y1="313.4922" y2="326.4922"/><line style="stroke:#181818;stroke-width:1.0;" x1="430.5" x2="471.5" y1="326.4922" y2="326.4922"/><polygon fill="#181818" points="440.5,322.4922,430.5,326.4922,440.5,330.4922,436.5,326.4922" style="stroke:#181818;stroke-width:1.0;"/><text fill="#000000" font-family="sans-serif" font-size="13" lengthAdjust="spacing" textLength="120" x="436.5" y="308.4263">predicate(2)-&gt;true</text><polygon fill="#181818" points="325.5,351.625,315.5,355.625,325.5,359.625,321.5,355.625" style="stroke:#181818;stroke-width:1.0;"/><line style="stroke:#181818;stroke-width:1.0;" x1="319.5" x2="428.5" y1="355.625" y2="355.625"/><text fill="#000000" font-family="sans-serif" font-size="13" lengthAdjust="spacing" textLength="84" x="331.5" y="350.5591">yield return 2</text><line style="stroke:#181818;stroke-width:1.0;" x1="314.5" x2="356.5" y1="384.7578" y2="384.7578"/><line style="stroke:#181818;stroke-width:1.0;" x1="356.5" x2="356.5" y1="384.7578" y2="397.7578"/><line style="stroke:#181818;stroke-width:1.0;" x1="315.5" x2="356.5" y1="397.7578" y2="397.7578"/><polygon fill="#181818" points="325.5,393.7578,315.5,397.7578,325.5,401.7578,321.5,397.7578" style="stroke:#181818;stroke-width:1.0;"/><text fill="#000000" font-family="sans-serif" font-size="13" lengthAdjust="spacing" textLength="93" x="321.5" y="379.6919">selector(2)-&gt;4</text><polygon fill="#181818" points="209.5,422.8906,199.5,426.8906,209.5,430.8906,205.5,426.8906" style="stroke:#181818;stroke-width:1.0;"/><line style="stroke:#181818;stroke-width:1.0;" x1="203.5" x2="313.5" y1="426.8906" y2="426.8906"/><text fill="#000000" font-family="sans-serif" font-size="13" lengthAdjust="spacing" textLength="84" x="215.5" y="421.8247">yield return 4</text><polygon fill="#181818" points="56.5,452.0234,46.5,456.0234,56.5,460.0234,52.5,456.0234" style="stroke:#181818;stroke-width:1.0;"/><line style="stroke:#181818;stroke-width:1.0;" x1="50.5" x2="197.5" y1="456.0234" y2="456.0234"/><text fill="#000000" font-family="sans-serif" font-size="13" lengthAdjust="spacing" textLength="84" x="62.5" y="450.9575">yield return 4</text><line style="stroke:#181818;stroke-width:1.0;" x1="45.5" x2="87.5" y1="485.1563" y2="485.1563"/><line style="stroke:#181818;stroke-width:1.0;" x1="87.5" x2="87.5" y1="485.1563" y2="498.1563"/><line style="stroke:#181818;stroke-width:1.0;" x1="46.5" x2="87.5" y1="498.1563" y2="498.1563"/><polygon fill="#181818" points="56.5,494.1563,46.5,498.1563,56.5,502.1563,52.5,498.1563" style="stroke:#181818;stroke-width:1.0;"/><text fill="#000000" font-family="sans-serif" font-size="13" lengthAdjust="spacing" textLength="131" x="52.5" y="480.0903">Console.WriteLine(4)</text><polygon fill="#181818" points="186.5,523.2891,196.5,527.2891,186.5,531.2891,190.5,527.2891" style="stroke:#181818;stroke-width:1.0;"/><line style="stroke:#181818;stroke-width:1.0;" x1="45.5" x2="192.5" y1="527.2891" y2="527.2891"/><text fill="#000000" font-family="sans-serif" font-size="13" lengthAdjust="spacing" textLength="74" x="52.5" y="522.2231">MoveNext()</text><polygon fill="#181818" points="302.5,552.4219,312.5,556.4219,302.5,560.4219,306.5,556.4219" style="stroke:#181818;stroke-width:1.0;"/><line style="stroke:#181818;stroke-width:1.0;" x1="198.5" x2="308.5" y1="556.4219" y2="556.4219"/><text fill="#000000" font-family="sans-serif" font-size="13" lengthAdjust="spacing" textLength="74" x="205.5" y="551.356">MoveNext()</text><polygon fill="#181818" points="417.5,581.5547,427.5,585.5547,417.5,589.5547,421.5,585.5547" style="stroke:#181818;stroke-width:1.0;"/><line style="stroke:#181818;stroke-width:1.0;" x1="314.5" x2="423.5" y1="585.5547" y2="585.5547"/><text fill="#000000" font-family="sans-serif" font-size="13" lengthAdjust="spacing" textLength="74" x="321.5" y="580.4888">MoveNext()</text><polygon fill="#181818" points="555.5,610.6875,565.5,614.6875,555.5,618.6875,559.5,614.6875" style="stroke:#181818;stroke-width:1.0;"/><line style="stroke:#181818;stroke-width:1.0;" x1="429.5" x2="561.5" y1="614.6875" y2="614.6875"/><text fill="#000000" font-family="sans-serif" font-size="13" lengthAdjust="spacing" textLength="74" x="436.5" y="609.6216">MoveNext()</text><polygon fill="#181818" points="440.5,639.8203,430.5,643.8203,440.5,647.8203,436.5,643.8203" style="stroke:#181818;stroke-width:1.0;"/><line style="stroke:#181818;stroke-width:1.0;" x1="434.5" x2="566.5" y1="643.8203" y2="643.8203"/><text fill="#000000" font-family="sans-serif" font-size="13" lengthAdjust="spacing" textLength="67" x="446.5" y="638.7544">Current=3</text><line style="stroke:#181818;stroke-width:1.0;" x1="429.5" x2="471.5" y1="672.9531" y2="672.9531"/><line style="stroke:#181818;stroke-width:1.0;" x1="471.5" x2="471.5" y1="672.9531" y2="685.9531"/><line style="stroke:#181818;stroke-width:1.0;" x1="430.5" x2="471.5" y1="685.9531" y2="685.9531"/><polygon fill="#181818" points="440.5,681.9531,430.5,685.9531,440.5,689.9531,436.5,685.9531" style="stroke:#181818;stroke-width:1.0;"/><text fill="#000000" font-family="sans-serif" font-size="13" lengthAdjust="spacing" textLength="124" x="436.5" y="667.8872">predicate(3)-&gt;false</text><polygon fill="#181818" points="555.5,711.0859,565.5,715.0859,555.5,719.0859,559.5,715.0859" style="stroke:#181818;stroke-width:1.0;"/><line style="stroke:#181818;stroke-width:1.0;" x1="429.5" x2="561.5" y1="715.0859" y2="715.0859"/><text fill="#000000" font-family="sans-serif" font-size="13" lengthAdjust="spacing" textLength="74" x="436.5" y="710.02">MoveNext()</text><polygon fill="#181818" points="440.5,740.2188,430.5,744.2188,440.5,748.2188,436.5,744.2188" style="stroke:#181818;stroke-width:1.0;"/><line style="stroke:#181818;stroke-width:1.0;" x1="434.5" x2="566.5" y1="744.2188" y2="744.2188"/><text fill="#000000" font-family="sans-serif" font-size="13" lengthAdjust="spacing" textLength="67" x="446.5" y="739.1528">Current=4</text><line style="stroke:#181818;stroke-width:1.0;" x1="429.5" x2="471.5" y1="773.3516" y2="773.3516"/><line style="stroke:#181818;stroke-width:1.0;" x1="471.5" x2="471.5" y1="773.3516" y2="786.3516"/><line style="stroke:#181818;stroke-width:1.0;" x1="430.5" x2="471.5" y1="786.3516" y2="786.3516"/><polygon fill="#181818" points="440.5,782.3516,430.5,786.3516,440.5,790.3516,436.5,786.3516" style="stroke:#181818;stroke-width:1.0;"/><text fill="#000000" font-family="sans-serif" font-size="13" lengthAdjust="spacing" textLength="120" x="436.5" y="768.2856">predicate(4)-&gt;true</text><polygon fill="#181818" points="325.5,811.4844,315.5,815.4844,325.5,819.4844,321.5,815.4844" style="stroke:#181818;stroke-width:1.0;"/><line style="stroke:#181818;stroke-width:1.0;" x1="319.5" x2="428.5" y1="815.4844" y2="815.4844"/><text fill="#000000" font-family="sans-serif" font-size="13" lengthAdjust="spacing" textLength="84" x="331.5" y="810.4185">yield return 4</text><line style="stroke:#181818;stroke-width:1.0;" x1="314.5" x2="356.5" y1="844.6172" y2="844.6172"/><line style="stroke:#181818;stroke-width:1.0;" x1="356.5" x2="356.5" y1="844.6172" y2="857.6172"/><line style="stroke:#181818;stroke-width:1.0;" x1="315.5" x2="356.5" y1="857.6172" y2="857.6172"/><polygon fill="#181818" points="325.5,853.6172,315.5,857.6172,325.5,861.6172,321.5,857.6172" style="stroke:#181818;stroke-width:1.0;"/><text fill="#000000" font-family="sans-serif" font-size="13" lengthAdjust="spacing" textLength="101" x="321.5" y="839.5513">selector(4)-&gt;16</text><polygon fill="#181818" points="209.5,882.75,199.5,886.75,209.5,890.75,205.5,886.75" style="stroke:#181818;stroke-width:1.0;"/><line style="stroke:#181818;stroke-width:1.0;" x1="203.5" x2="313.5" y1="886.75" y2="886.75"/><text fill="#000000" font-family="sans-serif" font-size="13" lengthAdjust="spacing" textLength="92" x="215.5" y="881.6841">yield return 16</text><polygon fill="#181818" points="56.5,911.8828,46.5,915.8828,56.5,919.8828,52.5,915.8828" style="stroke:#181818;stroke-width:1.0;"/><line style="stroke:#181818;stroke-width:1.0;" x1="50.5" x2="197.5" y1="915.8828" y2="915.8828"/><text fill="#000000" font-family="sans-serif" font-size="13" lengthAdjust="spacing" textLength="92" x="62.5" y="910.8169">yield return 16</text><line style="stroke:#181818;stroke-width:1.0;" x1="45.5" x2="87.5" y1="945.0156" y2="945.0156"/><line style="stroke:#181818;stroke-width:1.0;" x1="87.5" x2="87.5" y1="945.0156" y2="958.0156"/><line style="stroke:#181818;stroke-width:1.0;" x1="46.5" x2="87.5" y1="958.0156" y2="958.0156"/><polygon fill="#181818" points="56.5,954.0156,46.5,958.0156,56.5,962.0156,52.5,958.0156" style="stroke:#181818;stroke-width:1.0;"/><text fill="#000000" font-family="sans-serif" font-size="13" lengthAdjust="spacing" textLength="139" x="52.5" y="939.9497">Console.WriteLine(16)</text><!--SRC=[pP4nJyCm48Nt_0gFoH2a95Q72hfKRBHBG1sHrJv4LDUEBcS4_nuxQKGYm6Nem6JxthjxydsrEhKQpvN8L-9H7R7Ss3TiySvfbeHtgDVGsFDK6If1sxs2Parz8IXhwmm_jVV6dK2ABNrttUO_kDQE28RlYgzHGuXe2OTchnXfaUMh5wKxN2-kZCILFex9OVot7pHuFXheWo2m8oFAoLhEAnDTVrhgHyXXexvxb6VzCgb76DxIm_ZL42BEzwN_bEcinisE6iP3Ov3AR6RzNs2hoAQhwuELaJZv9x0o1ZQCA1Pnibw_W7RgkC2sM6J99m00]--></g></svg>